<?xml version="1.0" encoding="utf-8"?>
<!-- Generator: Adobe Illustrator 22.0.1, SVG Export Plug-In . SVG Version: 6.00 Build 0)  -->
<svg version="1.1" id="Layer_1" xmlns="http://www.w3.org/2000/svg" xmlns:xlink="http://www.w3.org/1999/xlink" x="0px" y="0px"
	 viewBox="0 0 1850.1 1256" style="enable-background:new 0 0 1850.1 1256;" xml:space="preserve">
<style type="text/css">
	.st0{fill:#FF0000;stroke:#000000;stroke-width:5;stroke-miterlimit:10;}
	.st1{fill:#3333FF;stroke:#000000;stroke-width:5;stroke-miterlimit:10;}
	.st2{fill:#00FF00;stroke:#000000;stroke-width:5;stroke-miterlimit:10;}
	.st3{fill:#FFFF00;stroke:#000000;stroke-width:5;stroke-miterlimit:10;}
	.st4{font-family:'ArialMT';}
	.st5{font-size:32px;}
</style>
<title>templete-gratis</title>
<g>
	<rect x="125" y="316.5" class="st0" width="84" height="255"/>
	<rect x="125" y="238.7" class="st1" width="307" height="77.7"/>
	<rect x="209" y="316.5" class="st2" width="223" height="255"/>
</g>
<g>
	<rect x="555" y="316.5" class="st0" width="102.3" height="177.3"/>
	<rect x="555" y="238.7" class="st1" width="307" height="77.7"/>
	<rect x="555" y="493.7" class="st2" width="307" height="77.7"/>
	<rect x="657.3" y="316.5" class="st0" width="102.3" height="177.3"/>
	<rect x="759.7" y="316.5" class="st0" width="102.3" height="177.3"/>
</g>
<g>
	<rect x="555" y="772.5" class="st0" width="102.3" height="177.3"/>
	<rect x="555" y="694.7" class="st1" width="307" height="77.7"/>
	<rect x="555" y="949.7" class="st2" width="307" height="77.7"/>
	<rect x="657.3" y="772.5" class="st0" width="204.7" height="177.3"/>
	<rect x="797" y="709.1" class="st3" width="50.1" height="50"/>
	<rect x="671.9" y="786" class="st3" width="50.1" height="50"/>
	<rect x="736.4" y="786" class="st3" width="110.9" height="151.4"/>
</g>
<g>
	<rect x="985" y="850.2" class="st0" width="307" height="177.3"/>
	<rect x="985" y="694.7" class="st1" width="307" height="77.7"/>
	<rect x="985" y="772.5" class="st2" width="307" height="77.7"/>
	<rect x="1006" y="871.8" class="st3" width="50.1" height="56.2"/>
	<rect x="1077.3" y="871.8" class="st3" width="50.1" height="56.2"/>
	<rect x="1220" y="871.8" class="st3" width="50.1" height="56.2"/>
	<rect x="1148.7" y="871.8" class="st3" width="50.1" height="56.2"/>
	<rect x="1006" y="950.8" class="st3" width="121.4" height="56.2"/>
	<rect x="1148.7" y="950.8" class="st3" width="121.4" height="56.2"/>
	<rect x="1138.5" y="694.7" class="st1" width="153.5" height="77.7"/>
</g>
<g>
	<rect x="125" y="850.2" class="st0" width="307" height="177.3"/>
	<rect x="125" y="694.7" class="st1" width="307" height="77.7"/>
	<rect x="125" y="772.5" class="st2" width="307" height="77.7"/>
	<rect x="142" y="788.8" class="st3" width="128" height="45.2"/>
	<rect x="286" y="788.8" class="st3" width="128" height="45.2"/>
	<rect x="142" y="868.8" class="st3" width="128" height="140.7"/>
	<rect x="286" y="868.8" class="st3" width="128" height="140.7"/>
</g>
<g>
	<rect x="985.1" y="238.7" class="st1" width="307" height="77.7"/>
	<rect x="985.1" y="493.7" class="st2" width="307" height="77.7"/>
	<rect x="985" y="316.5" class="st0" width="307" height="177.3"/>
	<rect x="1002" y="335.1" class="st3" width="128" height="140.7"/>
	<rect x="1146" y="335.1" class="st3" width="128" height="140.7"/>
</g>
<rect x="1422.2" y="318.6" class="st0" width="294.4" height="145.1"/>
<rect x="1422.2" y="463.7" class="st1" width="294.4" height="250.7"/>
<rect x="1422.2" y="150.7" class="st2" width="294.4" height="167.9"/>
<rect x="1434" y="379.5" class="st3" width="82.6" height="73.6"/>
<rect x="1422.2" y="118" class="st1" width="294.4" height="32.7"/>
<rect x="1528.3" y="379.5" class="st3" width="82.6" height="73.6"/>
<rect x="1622.7" y="379.5" class="st3" width="82.6" height="73.6"/>
<rect x="1422.2" y="714.3" class="st2" width="294.4" height="211.7"/>
<rect x="1434" y="782.3" class="st3" width="82.6" height="131.5"/>
<rect x="1422.2" y="926" class="st0" width="294.4" height="190.1"/>
<rect x="1528.3" y="782.3" class="st3" width="82.6" height="131.5"/>
<rect x="1622.7" y="975.8" class="st3" width="82.6" height="75.6"/>
<rect x="1622.7" y="782.3" class="st3" width="82.6" height="131.5"/>
<rect x="1434" y="727.1" class="st3" width="271.3" height="44.2"/>
<rect x="1434" y="127.4" class="st3" width="80" height="14.7"/>
<rect x="1524.3" y="127.4" class="st3" width="181" height="14.7"/>
<rect x="1434" y="329.5" class="st3" width="271.3" height="39.7"/>
<rect x="1434" y="975.8" class="st3" width="176.8" height="129.2"/>
<rect x="1434" y="939.3" class="st3" width="271.3" height="26.5"/>
<rect x="1434" y="518.2" class="st3" width="61.1" height="55.8"/>
<rect x="1503.8" y="518.2" class="st3" width="61.1" height="55.8"/>
<rect x="1573.6" y="518.2" class="st3" width="61.1" height="55.8"/>
<rect x="1643.7" y="518.2" class="st3" width="61.1" height="55.8"/>
<rect x="1434" y="581.8" class="st3" width="61.1" height="55.8"/>
<rect x="1503.8" y="581.8" class="st3" width="61.1" height="55.8"/>
<rect x="1573.6" y="581.8" class="st3" width="61.1" height="55.8"/>
<rect x="1643.7" y="581.8" class="st3" width="61.1" height="55.8"/>
<rect x="1434" y="645.4" class="st3" width="61.1" height="55.8"/>
<rect x="1503.8" y="645.4" class="st3" width="61.1" height="55.8"/>
<rect x="1573.6" y="645.4" class="st3" width="61.1" height="55.8"/>
<rect x="1643.7" y="645.4" class="st3" width="61.1" height="55.8"/>
<rect x="1434" y="477.8" class="st3" width="270.8" height="29.6"/>
<rect x="1422.2" y="1116.1" class="st1" width="294.4" height="29.9"/>
<text transform="matrix(1 0 0 1 89.6214 260.6087)" class="st4 st5">1</text>
<text transform="matrix(1 0 0 1 518.6214 260.6087)" class="st4 st5">2</text>
<text transform="matrix(1 0 0 1 948.6214 260.6087)" class="st4 st5">3</text>
<text transform="matrix(1 0 0 1 89.6214 717.6088)" class="st4 st5">4</text>
<text transform="matrix(1 0 0 1 518.6214 717.6088)" class="st4 st5">5</text>
<text transform="matrix(1 0 0 1 948.6214 717.6088)" class="st4 st5">6</text>
<text transform="matrix(1 0 0 1 1387.5861 143.6211)" class="st4 st5">7</text>
</svg>
