<?xml version="1.0" standalone="no"?>
<!DOCTYPE svg PUBLIC "-//W3C//DTD SVG 20010904//EN"
 "http://www.w3.org/TR/2001/REC-SVG-20010904/DTD/svg10.dtd">
<svg version="1.0" xmlns="http://www.w3.org/2000/svg"
 width="920.000000pt" height="920.000000pt" viewBox="0 0 920.000000 920.000000"
 preserveAspectRatio="xMidYMid meet">
<metadata>
Created by potrace 1.11, written by Peter Selinger 2001-2013
</metadata>
<g transform="translate(0.000000,920.000000) scale(0.100000,-0.100000)"
fill="#000000" stroke="none">
<path d="M4355 8494 c-22 -2 -92 -9 -155 -15 -147 -14 -361 -50 -520 -89
-1404 -343 -2510 -1438 -2860 -2832 -87 -345 -115 -582 -115 -958 0 -290 10
-418 51 -655 279 -1633 1557 -2911 3188 -3190 239 -40 366 -50 656 -50 290 0
418 10 655 51 1318 225 2426 1106 2944 2340 141 337 240 726 283 1109 17 158
17 632 0 790 -115 1041 -601 1946 -1401 2612 -573 477 -1274 776 -2036 869
-123 15 -597 27 -690 18z m553 -1595 c411 -45 793 -192 1079 -415 l83 -65 -24
-42 c-13 -23 -77 -141 -141 -262 -131 -245 -157 -284 -220 -320 -90 -53 -192
-41 -334 39 -217 123 -398 196 -541 217 -104 15 -323 6 -404 -16 -194 -54
-315 -180 -347 -359 -51 -295 128 -454 708 -630 282 -86 527 -178 698 -263
294 -147 510 -385 604 -668 88 -264 80 -641 -20 -940 -171 -511 -595 -874
-1149 -984 -508 -100 -1062 -17 -1557 235 -183 93 -380 228 -460 315 l-21 24
164 260 c91 143 177 273 192 289 33 35 112 73 168 82 71 10 156 -19 289 -100
237 -146 384 -217 532 -258 108 -30 433 -33 533 -5 258 73 378 245 368 527 -5
142 -33 205 -130 295 -119 110 -253 168 -658 286 -300 87 -427 132 -595 214
-372 180 -586 457 -661 860 -26 140 -27 445 -1 563 39 175 110 342 210 492 63
95 259 290 354 353 213 141 458 234 713 271 116 17 436 20 568 5z"/>
</g>
</svg>
